<?xml version="1.0" encoding="utf-8"?>
<!-- Generator: Adobe Illustrator 16.2.1, SVG Export Plug-In . SVG Version: 6.00 Build 0)  -->
<!DOCTYPE svg PUBLIC "-//W3C//DTD SVG 1.1//EN" "http://www.w3.org/Graphics/SVG/1.1/DTD/svg11.dtd">
<svg version="1.1" id="Layer_1" xmlns="http://www.w3.org/2000/svg" xmlns:xlink="http://www.w3.org/1999/xlink" x="0px" y="0px"
	 width="16px" height="12px" viewBox="0 0 16 12" enable-background="new 0 0 16 12" xml:space="preserve">
<symbol  id="Eye" viewBox="-7.443 -5 14.887 10">
	<path fill="#FFFFFF" d="M0,5c-3.35,0-6.234-2.074-7.443-5C-6.234-2.926-3.35-5,0-5s6.234,2.074,7.443,5C6.234,2.926,3.35,5,0,5z
		 M0-3c-1.658,0-3,1.344-3,3s1.342,3,3,3c1.656,0,3-1.344,3-3S1.656-3,0-3z"/>
	<path fill="#FFFFFF" d="M1.601,0.001c0-0.885-0.717-1.602-1.6-1.602c-0.885,0-1.602,0.717-1.602,1.602c0,0.883,0.717,1.6,1.602,1.6
		C0.884,1.601,1.601,0.884,1.601,0.001z"/>
</symbol>
<use xlink:href="#Eye"  width="14.887" height="10" id="edit-panel" x="-7.443" y="-5" transform="matrix(1 0 0 -1 8 6)" overflow="visible"/>
</svg>
