<?xml version="1.0" encoding="utf-8"?>
<!-- Generator: Adobe Illustrator 16.2.1, SVG Export Plug-In . SVG Version: 6.00 Build 0)  -->
<!DOCTYPE svg PUBLIC "-//W3C//DTD SVG 1.1//EN" "http://www.w3.org/Graphics/SVG/1.1/DTD/svg11.dtd">
<svg version="1.1" id="Layer_1" xmlns="http://www.w3.org/2000/svg" xmlns:xlink="http://www.w3.org/1999/xlink" x="0px" y="0px"
	 width="160px" height="160px" viewBox="0 0 160 160" enable-background="new 0 0 160 160" xml:space="preserve">
<g>
	<path fill="#FFFFFF" d="M130,120h-13c-5.5,0-10,4.5-10,10v6c0,5.5-4.5,10-10,10H63c-5.5,0-10-4.5-10-10v-6c0-5.5-4.5-10-10-10H30
		c-16.5,0-30-13.5-30-30v40c0,16.5,13.5,30,30,30h100c16.5,0,30-13.5,30-30V90C160,106.5,146.5,120,130,120z"/>
	<path opacity="0.7" fill="#FFFFFF" d="M130,0H30C13.5,0,0,13.5,0,30v60c0,16.5,13.5,30,30,30h13c5.5,0,10,4.5,10,10v-10v-4
		c0-5.5-4.5-10-10-10H30c-8.822,0-16-7.178-16-16V30c0-8.822,7.178-16,16-16h100c8.822,0,16,7.178,16,16v60c0,8.822-7.178,16-16,16
		h-13c-5.5,0-10,4.5-10,10v4v10c0-5.5,4.5-10,10-10h13c16.5,0,30-13.5,30-30V30C160,13.5,146.5,0,130,0z"/>
	<path opacity="0.7" fill="#FFFFFF" d="M107,136c0,5.5-4.5,10-10,10H63c-5.5,0-10-4.5-10-10v-14c0,5.5,4.5,10,10,10h34
		c5.5,0,10-4.5,10-10V136z"/>
</g>
<path opacity="0.4" d="M146,90c0,8.822-7.178,16-16,16h-13c-5.5,0-10,4.5-10,10v4v2c0,5.5-4.5,10-10,10H63c-5.5,0-10-4.5-10-10v-2
	v-4c0-5.5-4.5-10-10-10H30c-8.822,0-16-7.178-16-16V30c0-8.822,7.178-16,16-16h100c8.822,0,16,7.178,16,16V90z"/>
</svg>
